<svg width="311" height="347" viewBox="0 0 311 347" fill="none" xmlns="http://www.w3.org/2000/svg">
<g clip-path="url(#clip0_2_119)">
<path d="M150.093 101.418L104.676 120.53V42.3873L67.7066 171.36L104.676 154.959V243.268L150.093 101.418ZM93.862 35.8811L92.9834 39.0664L82.7105 74.9186C55.4737 85.4234 36.1443 111.923 36.1443 142.895C36.1443 178.341 59.326 207.89 92.5103 214.396V250.723C39.8615 243.607 1 197.724 1 142.963C1 88.4055 41.4159 43.2006 93.862 35.8811ZM304.322 338.964C296.753 346.555 288.71 347.3 284.993 346.08C281.343 344.86 266.677 332.593 244.171 315.989C221.666 299.316 221.463 291.794 215.11 277.561C208.757 263.396 194.564 248.69 176.248 242.048L169.693 232.085C152.999 243.539 133.872 250.316 114.746 251.536L116.165 247.063L126.911 213.515C158.338 205.45 181.588 176.918 181.588 142.895C181.588 105.959 155.635 73.6986 116.706 70.31V35C172.937 38.4564 217.273 85.4912 217.273 142.963C217.273 165.735 209.703 186.812 197.673 204.23L207.54 210.737C214.164 229.103 228.83 243.268 242.955 249.638C257.08 256.009 264.717 256.213 281.343 278.781C297.969 301.282 310.202 315.989 311.419 319.648C312.635 323.308 311.892 331.373 304.322 338.964ZM297.631 326.832C297.631 323.85 295.198 321.411 292.225 321.411C289.251 321.411 286.818 323.85 286.818 326.832C286.818 329.814 289.251 332.254 292.225 332.254C295.198 332.254 297.631 329.814 297.631 326.832Z" fill="#2C7CD8"/>
</g>
<defs>
<clipPath id="clip0_2_119">
<rect width="311" height="347" fill="white"/>
</clipPath>
</defs>
</svg>
