<svg width="408" height="408" viewBox="0 0 208 208" fill="none" xmlns="http://www.w3.org/2000/svg">
<path d="M153.389 79.6789C154.141 78.7612 154.702 77.7019 155.038 76.5638C155.374 75.4256 155.478 74.2316 155.345 73.0524C155.212 71.8732 154.843 70.7327 154.262 69.6983C153.68 68.6639 152.897 67.7565 151.959 67.0299C150.05 65.5368 147.634 64.848 145.226 65.1103C142.817 65.3726 140.605 66.5651 139.063 68.4339L96.033 121.214L73.023 103.534C71.1433 102.004 68.7405 101.269 66.3267 101.485C63.9129 101.701 61.6789 102.852 60.101 104.691C59.33 105.593 58.7478 106.64 58.3885 107.771C58.0293 108.902 57.9004 110.094 58.0095 111.275C58.1186 112.457 58.4634 113.605 59.0236 114.651C59.5837 115.697 60.3479 116.62 61.271 117.366L91.431 140.896C93.3355 142.445 95.7756 143.178 98.2185 142.934C100.661 142.691 102.909 141.491 104.47 139.596L153.35 79.5359L153.389 79.6789Z" fill="url(#paint0_linear_40_5)"/>
<path fill-rule="evenodd" clip-rule="evenodd" d="M84.6189 9.27086C91.5609 4.17486 95.0319 1.62686 98.7889 0.638858C102.146 -0.212953 105.663 -0.212953 109.02 0.638858C112.816 1.62686 116.3 4.17486 123.19 9.27086L131.991 15.7319C134.396 17.4999 135.605 18.3839 136.905 19.0729C138.066 19.6795 139.275 20.1822 140.532 20.5809C141.949 21.0099 143.418 21.2309 146.369 21.6859L157.159 23.3369C165.674 24.6369 169.925 25.2999 173.279 27.2889C176.269 29.0439 178.765 31.5399 180.52 34.5299C182.509 37.9099 183.159 42.1739 184.472 50.6499L186.123 61.4399C186.578 64.3909 186.799 65.8729 187.228 67.2899C187.618 68.5465 188.121 69.7512 188.736 70.9039C189.438 72.2039 190.309 73.4129 192.077 75.8179L198.538 84.6189C203.634 91.5609 206.182 95.0319 207.17 98.7889C208.022 102.146 208.022 105.663 207.17 109.02C206.195 112.816 203.634 116.3 198.538 123.19L192.077 131.991C190.84 133.542 189.723 135.184 188.736 136.905C188.119 138.068 187.614 139.287 187.228 140.545C186.799 141.949 186.578 143.418 186.123 146.369L184.472 157.159C183.172 165.674 182.509 169.925 180.52 173.279C178.765 176.269 176.269 178.752 173.279 180.52C169.899 182.509 165.635 183.159 157.159 184.472L146.369 186.123C144.398 186.347 142.446 186.72 140.532 187.241C139.275 187.622 138.066 188.125 136.905 188.749C135.605 189.438 134.396 190.309 131.991 192.09L123.19 198.551C116.248 203.647 112.777 206.195 109.02 207.183C105.663 208.035 102.146 208.035 98.7889 207.183C94.9929 206.195 91.5089 203.647 84.6189 198.551L75.8179 192.09C74.2672 190.853 72.6244 189.736 70.9039 188.749C69.7451 188.133 68.5307 187.628 67.2769 187.241C65.3625 186.72 63.4111 186.347 61.4399 186.123L50.6499 184.472C42.1349 183.172 37.8709 182.522 34.5299 180.52C31.5505 178.747 29.0614 176.258 27.2889 173.279C25.2999 169.899 24.6499 165.635 23.3369 157.159L21.6859 146.369C21.2309 143.418 21.0099 141.949 20.5809 140.532C20.2016 139.275 19.6963 138.06 19.0729 136.905C18.0858 135.184 16.9689 133.542 15.7319 131.991L9.27086 123.19C4.17486 116.248 1.62686 112.79 0.638858 109.02C-0.212953 105.663 -0.212953 102.146 0.638858 98.7889C1.61386 94.9929 4.17486 91.5089 9.27086 84.6189L15.7319 75.8179C17.4999 73.4129 18.3839 72.2039 19.0729 70.9039C19.6795 69.7425 20.1822 68.5335 20.5809 67.2769C21.0099 65.8599 21.2309 64.3909 21.6859 61.4399L23.3369 50.6499C24.6369 42.1349 25.2999 37.8709 27.2889 34.5299C29.0439 31.5399 31.5399 29.0699 34.5299 27.2889C37.9099 25.2999 42.1739 24.6499 50.6499 23.3369L61.4399 21.6859C64.3909 21.2439 65.8729 21.0099 67.2769 20.5809C68.5335 20.1909 69.7425 19.6882 70.9039 19.0729C72.2039 18.3839 73.4129 17.4999 75.8179 15.7319L84.6189 9.27086ZM115.559 19.7489L124.802 26.5349C126.765 27.9779 128.702 29.3949 130.86 30.5519C132.767 31.5659 134.743 32.3849 136.788 33.0089C139.126 33.6554 141.506 34.1376 143.912 34.4519L155.248 36.1939C164.881 37.6759 166.077 38.0789 166.779 38.4949C167.88 39.1535 168.755 40.0289 169.405 41.1209C169.821 41.8229 170.237 43.0189 171.706 52.6519L173.448 63.9879C173.762 66.3933 174.244 68.7738 174.891 71.1119C175.524 73.1745 176.343 75.1505 177.348 77.0399C178.492 79.1979 179.922 81.1349 181.365 83.0979L188.151 92.3409C193.923 100.193 194.469 101.324 194.677 102.13C194.977 103.351 194.977 104.627 194.677 105.848C194.469 106.641 193.923 107.772 188.151 115.637L181.365 124.88C179.922 126.843 178.492 128.78 177.348 130.938C176.343 132.831 175.52 134.816 174.891 136.866C174.244 139.204 173.762 141.584 173.448 143.99L171.706 155.326C170.224 164.959 169.821 166.155 169.405 166.857C168.754 167.931 167.853 168.832 166.779 169.483C166.077 169.899 164.881 170.315 155.248 171.784L143.912 173.526C141.506 173.84 139.126 174.322 136.788 174.969C134.738 175.598 132.753 176.421 130.86 177.426C128.702 178.57 126.765 180 124.802 181.443L115.559 188.229C107.707 194.001 106.576 194.547 105.77 194.755C104.549 195.055 103.273 195.055 102.052 194.755C101.259 194.547 100.128 194.001 92.2629 188.229L83.0199 181.443C81.0967 179.964 79.0724 178.622 76.9619 177.426C75.0683 176.421 73.0833 175.598 71.0339 174.969C68.6958 174.322 66.3153 173.84 63.9099 173.526L52.5739 171.784C42.9409 170.302 41.7449 169.899 41.0429 169.483C39.9689 168.832 39.068 167.931 38.4169 166.857C38.0009 166.155 37.5849 164.959 36.1159 155.326L34.3739 143.99C34.0596 141.584 33.5774 139.204 32.9309 136.866C32.3017 134.816 31.479 132.831 30.4739 130.938C29.3299 128.78 27.8999 126.843 26.4569 124.88L19.6709 115.637C13.8989 107.785 13.3529 106.654 13.1449 105.848C12.8452 104.627 12.8452 103.351 13.1449 102.13C13.3529 101.337 13.8989 100.206 19.6709 92.3409L26.4569 83.0979C27.8999 81.1349 29.3299 79.1979 30.4739 77.0399C31.4792 75.1332 32.2982 73.1572 32.9309 71.1119C33.5774 68.7738 34.0596 66.3933 34.3739 63.9879L36.1159 52.6519C37.5979 43.0189 38.0009 41.8229 38.4169 41.1209C39.068 40.0469 39.9689 39.146 41.0429 38.4949C41.7449 38.0789 42.9409 37.6629 52.5739 36.1939L63.9099 34.4519C66.3153 34.1376 68.6958 33.6554 71.0339 33.0089C73.0965 32.3762 75.0725 31.5572 76.9619 30.5519C79.1199 29.4079 81.0569 27.9779 83.0199 26.5349L92.2629 19.7489C100.115 13.9769 101.246 13.4309 102.052 13.2229C103.273 12.9232 104.549 12.9232 105.77 13.2229C106.563 13.4309 107.694 13.9769 115.559 19.7489Z" fill="url(#paint1_linear_40_5)"/>
<defs>
<linearGradient id="paint0_linear_40_5" x1="155.401" y1="85.267" x2="67.3073" y2="138.282" gradientUnits="userSpaceOnUse">
<stop offset="0.2077" stop-color="#7AB4E4"/>
<stop offset="0.824212" stop-color="#43647E"/>
</linearGradient>
<linearGradient id="paint1_linear_40_5" x1="207.809" y1="53.9029" x2="2.2238e-06" y2="153.919" gradientUnits="userSpaceOnUse">
<stop offset="0.2077" stop-color="#7AB4E4"/>
<stop offset="0.824212" stop-color="#43647E"/>
</linearGradient>
</defs>
</svg>
