<svg width="65" height="64" viewBox="0 0 65 64" fill="none" xmlns="http://www.w3.org/2000/svg">
<path fill-rule="evenodd" clip-rule="evenodd" d="M32.2773 59C47.189 59 59.2773 46.9117 59.2773 32C59.2773 17.0883 47.189 5 32.2773 5C17.3657 5 5.27734 17.0883 5.27734 32C5.27734 46.9117 17.3657 59 32.2773 59ZM32.2773 64C49.9505 64 64.2773 49.6731 64.2773 32C64.2773 14.3269 49.9505 0 32.2773 0C14.6042 0 0.277344 14.3269 0.277344 32C0.277344 49.6731 14.6042 64 32.2773 64Z" fill="#00CFA6"/>
<path fill-rule="evenodd" clip-rule="evenodd" d="M26.9374 63.5563C21.7529 62.6854 16.9914 60.5678 12.9715 57.5224V32.5708C12.9715 21.5933 21.6151 12.6941 32.2773 12.6941C42.9396 12.6941 51.5831 21.5933 51.5831 32.5708C51.5831 43.5482 42.9396 52.4474 32.2773 52.4474C31.8634 52.4474 31.4526 52.434 31.0451 52.4076V37.9215C31.4407 38.0177 31.8532 38.0686 32.2773 38.0686C35.2265 38.0686 37.6172 35.6071 37.6172 32.5708C37.6172 29.5344 35.2265 27.073 32.2773 27.073C29.3282 27.073 26.9374 29.5344 26.9374 32.5708L26.9375 32.6056V51.6772L26.9374 51.6772V63.5563Z" fill="#FF2400"/>
</svg>
