<svg width="618" height="150" viewBox="0 0 618 150" fill="none" xmlns="http://www.w3.org/2000/svg">
<path d="M162.379 52.8091H224.943V64.2665H200.347V128.687H186.812V64.2665H162.322V52.8047H162.375L162.379 52.8091ZM222.272 73.7429H233.838V84.3488H234.054C234.438 82.8488 235.145 81.4017 236.182 80.0076C238.4 77.0196 241.402 74.7032 244.856 73.315C246.61 72.6202 248.478 72.2567 250.365 72.2429C251.778 72.2429 252.819 72.2959 253.367 72.3532C253.91 72.4062 254.453 72.512 255.053 72.565V84.2385C254.167 84.0836 253.276 83.9586 252.382 83.8635C251.494 83.7585 250.601 83.7055 249.707 83.7047C247.633 83.7047 245.673 84.1326 243.819 84.94C241.965 85.7385 240.38 86.9694 239.02 88.5267C237.57 90.268 236.459 92.2658 235.745 94.4164C234.928 96.7723 234.544 99.4459 234.544 102.503V128.634H222.219V73.7429H222.272ZM311.728 128.691H299.62V121.033H299.399C297.871 123.821 295.638 126.018 292.636 127.677C289.634 129.336 286.58 130.191 283.472 130.191C276.109 130.191 270.759 128.427 267.492 124.836C264.217 121.249 262.579 115.84 262.579 108.609V73.7473H274.908V107.431C274.908 112.253 275.835 115.681 277.747 117.662C279.601 119.643 282.271 120.662 285.653 120.662C288.27 120.662 290.398 120.287 292.142 119.48C293.89 118.677 295.307 117.662 296.344 116.321C297.434 115.037 298.198 113.431 298.693 111.609C299.178 109.787 299.399 107.806 299.399 105.666V73.8003H311.728V128.691ZM332.727 111.075C333.111 114.605 334.47 117.075 336.819 118.518C339.216 119.912 342.054 120.662 345.382 120.662C346.53 120.662 347.837 120.552 349.311 120.393C350.781 120.23 352.198 119.855 353.456 119.378C354.763 118.893 355.796 118.143 356.67 117.181C357.491 116.211 357.87 114.984 357.817 113.431C357.81 112.71 357.652 111.999 357.351 111.344C357.051 110.689 356.615 110.104 356.074 109.628C354.979 108.614 353.62 107.864 351.924 107.219C350.036 106.566 348.104 106.047 346.142 105.666C343.961 105.239 341.78 104.753 339.547 104.272C337.297 103.786 335.074 103.177 332.89 102.45C330.841 101.794 328.909 100.819 327.165 99.5606C325.465 98.375 324.079 96.7944 323.126 94.9547C322.093 93.0797 321.598 90.7767 321.598 87.9929C321.598 84.9929 322.362 82.5312 323.836 80.4929C325.323 78.4717 327.243 76.8077 329.456 75.6223C331.833 74.3661 334.389 73.4809 337.035 72.9973C339.816 72.5165 342.491 72.2473 344.998 72.2473C347.89 72.2473 350.671 72.5694 353.293 73.1606C355.831 73.7038 358.251 74.7006 360.435 76.1032C362.563 77.4444 364.306 79.2091 365.728 81.3532C367.145 83.4929 368.019 86.1179 368.399 89.1709H355.526C354.926 86.2812 353.615 84.3003 351.492 83.3341C349.364 82.3194 346.91 81.8341 344.182 81.8341C343.308 81.8341 342.27 81.887 341.074 82.0503C339.921 82.2035 338.787 82.4725 337.688 82.8532C336.684 83.2228 335.773 83.807 335.018 84.565C334.651 84.9605 334.366 85.4244 334.179 85.9301C333.992 86.4357 333.906 86.9733 333.927 87.512C333.927 89.012 334.47 90.19 335.508 91.0988C336.545 92.0076 337.909 92.7576 339.6 93.4017C341.29 93.9929 343.202 94.5267 345.382 94.9547C347.563 95.3826 349.797 95.8635 352.092 96.3488C354.326 96.8297 356.506 97.4738 358.692 98.1665C360.872 98.8635 362.779 99.8297 364.474 101.061C366.165 102.291 367.529 103.791 368.562 105.614C369.599 107.431 370.147 109.734 370.147 112.412C370.147 115.677 369.383 118.412 367.851 120.715C366.328 122.965 364.364 124.836 361.963 126.23C359.449 127.677 356.725 128.725 353.889 129.336C351.004 129.97 348.059 130.292 345.104 130.297C341.796 130.334 338.497 129.938 335.291 129.119C332.29 128.316 329.672 127.139 327.491 125.59C325.336 124.025 323.564 121.991 322.309 119.643C321.055 117.287 320.398 114.446 320.292 111.181H332.727V111.075ZM373.418 73.7517H382.745V57.2517H395.074V73.7517H406.198V82.7959H395.078V112.147C395.078 113.427 395.131 114.503 395.242 115.465C395.348 116.378 395.621 117.181 396.005 117.821C396.423 118.493 397.056 119.003 397.802 119.268C398.623 119.59 399.656 119.753 401.077 119.753C401.947 119.753 402.821 119.753 403.695 119.696C404.569 119.643 405.439 119.537 406.313 119.321V128.691C404.949 128.855 403.585 128.961 402.331 129.119C401.01 129.273 399.68 129.345 398.349 129.336C395.078 129.336 392.461 129.014 390.492 128.427C388.532 127.836 386.947 126.927 385.857 125.749C384.709 124.571 384.003 123.124 383.566 121.355C383.141 119.365 382.905 117.34 382.86 115.306V82.8973H373.532V73.7385H373.422L373.418 73.7517ZM414.925 73.7517H426.601V81.19H426.822C428.561 77.9782 430.962 75.7282 434.07 74.3385C437.246 72.927 440.689 72.2139 444.165 72.2473C448.58 72.2473 452.398 72.9973 455.673 74.5503C458.944 76.0503 461.672 78.1415 463.853 80.815C466.034 83.4929 467.618 86.5988 468.709 90.137C469.82 93.8177 470.372 97.6441 470.346 101.489C470.346 105.181 469.857 108.768 468.872 112.2C467.968 115.511 466.471 118.631 464.453 121.408C462.471 124.085 459.895 126.267 456.927 127.783C453.872 129.389 450.328 130.191 446.183 130.191C444.371 130.189 442.563 130.027 440.78 129.706C439.001 129.386 437.264 128.866 435.602 128.158C433.95 127.469 432.406 126.548 431.015 125.422C429.643 124.328 428.447 123.029 427.47 121.571H427.25V148.99H414.925V73.7429V73.7517ZM458.017 101.272C458.02 98.8303 457.69 96.3992 457.037 94.0459C456.433 91.8161 455.434 89.7124 454.089 87.8341C452.812 86.0471 451.155 84.5646 449.237 83.4929C447.178 82.3806 444.869 81.8098 442.528 81.8341C437.345 81.8341 433.417 83.5988 430.799 87.137C428.181 90.6709 426.87 95.387 426.87 101.272C426.87 104.056 427.201 106.628 427.908 108.984C428.614 111.34 429.598 113.378 431.015 115.09C432.384 116.806 434.017 118.143 435.928 119.105C437.835 120.124 440.073 120.605 442.581 120.605C445.419 120.605 447.763 120.018 449.727 118.893C451.63 117.799 453.268 116.3 454.526 114.503C455.779 112.681 456.711 110.643 457.254 108.344C457.756 106.02 458.012 103.65 458.017 101.272ZM479.78 52.8091H492.109V64.2709H479.78V52.8091ZM479.78 73.7473H492.109V128.691H479.78V73.7473ZM503.127 52.8091H515.456V128.691H503.127V52.8091ZM553.256 130.191C548.78 130.191 544.798 129.441 541.31 127.999C537.967 126.628 534.941 124.586 532.42 121.999C529.969 119.359 528.092 116.241 526.907 112.84C525.609 109.086 524.964 105.138 525 101.166C525 96.9885 525.653 93.137 526.907 89.5988C528.092 86.1997 529.97 83.0828 532.42 80.4444C534.817 77.8723 537.819 75.8915 541.31 74.4444C544.798 72.9973 548.78 72.2473 553.256 72.2473C557.727 72.2473 561.709 72.9973 565.201 74.4444C568.692 75.8915 571.637 77.9297 574.091 80.4444C576.542 83.0818 578.417 86.1991 579.6 89.5988C580.854 93.1326 581.507 96.9885 581.507 101.166C581.507 105.402 580.854 109.306 579.6 112.84C578.418 116.241 576.542 119.36 574.091 121.999C571.69 124.571 568.692 126.552 565.201 127.999C561.709 129.441 557.727 130.191 553.256 130.191ZM553.256 120.605C555.984 120.605 558.381 120.018 560.398 118.893C562.364 117.799 564.061 116.28 565.364 114.446C566.671 112.628 567.598 110.537 568.255 108.234C568.856 105.931 569.182 103.575 569.182 101.166C569.182 98.8106 568.856 96.5076 568.255 94.1517C567.693 91.9171 566.712 89.8092 565.364 87.94C564.058 86.1237 562.361 84.6235 560.398 83.5503C558.381 82.4253 555.984 81.8341 553.256 81.8341C550.528 81.8341 548.126 82.4253 546.109 83.5503C544.158 84.6399 542.466 86.1372 541.147 87.94C539.818 89.8203 538.839 91.9245 538.256 94.1517C537.652 96.4416 537.339 98.7984 537.324 101.166C537.324 103.575 537.655 105.931 538.256 108.234C538.856 110.537 539.836 112.628 541.147 114.446C542.454 116.268 544.092 117.768 546.109 118.893C548.126 120.071 550.528 120.605 553.256 120.605ZM585.109 73.7517H594.436V57.2517H606.766V73.7517H617.89V82.7959H606.766V112.147C606.766 113.427 606.818 114.503 606.924 115.465C607.035 116.378 607.308 117.181 607.693 117.821C608.109 118.494 608.743 119.004 609.489 119.268C610.31 119.59 611.343 119.753 612.765 119.753C613.634 119.753 614.508 119.753 615.382 119.696C616.256 119.643 617.126 119.537 618 119.321V128.691C616.636 128.855 615.272 128.961 614.018 129.119C612.697 129.273 611.367 129.345 610.036 129.336C606.766 129.336 604.143 129.014 602.179 128.427C600.219 127.836 598.634 126.927 597.544 125.749C596.401 124.571 595.69 123.124 595.253 121.355C594.829 119.365 594.592 117.34 594.547 115.306V82.8973H585.219V73.7385H585.109V73.7517Z" fill="white"/>
<path d="M147.98 52.8044H91.4728L74.0187 0L56.5029 52.8088L0 52.7515L45.7629 85.4162L28.2558 138.163L74.0187 105.551L119.729 138.163L102.275 85.4162L147.98 52.8044Z" fill="#04DA8D"/>
<path d="M106.199 97.3636L102.27 85.4209L74.0188 105.556L106.199 97.3636Z" fill="#126849"/>
</svg>
