<svg width="408" height="408" viewBox="0 0 205 205" fill="none" xmlns="http://www.w3.org/2000/svg">
<path fill-rule="evenodd" clip-rule="evenodd" d="M83.3984 9.13714L74.7243 15.505C73.196 16.7241 71.577 17.8249 69.8812 18.7978C68.7392 19.4048 67.5423 19.9025 66.3065 20.284C64.91 20.7068 63.4621 20.9246 60.5537 21.3731L49.9193 23.0003C41.5271 24.2815 37.3246 24.935 34.0318 26.8953C31.085 28.625 28.6378 31.085 26.8953 34.0318C24.935 37.3631 24.2943 41.5656 23.0003 49.9193L21.3731 60.5537C20.9246 63.4621 20.7068 64.9228 20.284 66.3193C19.8996 67.5579 19.4042 68.7452 18.7978 69.8812C18.1059 71.1625 17.2475 72.354 15.505 74.7243L9.13714 83.3984C4.11464 90.2403 1.60339 93.6612 0.629643 97.364C-0.209881 100.673 -0.209881 104.139 0.629643 107.447C1.59058 111.189 4.11464 114.622 9.13714 121.413L15.505 130.087C17.2475 132.457 18.1187 133.649 18.7978 134.93C19.3957 136.075 19.8911 137.271 20.284 138.518C20.7068 139.902 20.9246 141.349 21.3731 144.258L23.0003 154.892C24.2815 163.284 24.935 167.474 26.8953 170.78C28.625 173.727 31.085 176.174 34.0318 177.916C37.3631 179.876 41.5656 180.517 49.9193 181.811L60.5537 183.438C63.4621 183.887 64.9228 184.117 66.3065 184.54C67.5451 184.916 68.7366 185.412 69.8812 186.027C71.1625 186.706 72.354 187.564 74.7243 189.319L83.3984 195.687C90.2403 200.71 93.6612 203.221 97.364 204.195C100.67 205.053 104.142 205.053 107.447 204.195C111.189 203.221 114.622 200.71 121.413 195.687L130.087 189.319C132.457 187.577 133.649 186.706 134.93 186.027C136.075 185.412 137.266 184.916 138.505 184.54C139.902 184.117 141.349 183.9 144.258 183.438L154.892 181.811C163.284 180.53 167.474 179.889 170.78 177.916C173.727 176.186 176.187 173.727 177.916 170.78C179.877 167.448 180.517 163.246 181.811 154.892L183.438 144.258C183.887 141.349 184.105 139.902 184.527 138.505C184.912 137.266 185.407 136.075 186.014 134.93C186.706 133.649 187.564 132.457 189.307 130.087L195.674 121.413C200.697 114.571 203.208 111.163 204.182 107.447C205.021 104.139 205.021 100.673 204.182 97.364C203.221 93.6228 200.697 90.189 195.674 83.3984L189.307 74.7243C188.087 73.196 186.987 71.577 186.014 69.8812C185.407 68.7392 184.909 67.5423 184.527 66.3065C184.019 64.4194 183.655 62.4962 183.438 60.5537L181.811 49.9193C180.53 41.5271 179.877 37.3246 177.916 34.0318C176.169 31.0954 173.716 28.6422 170.78 26.8953C167.448 24.935 163.246 24.2943 154.892 23.0003L144.258 21.3731C142.315 21.1568 140.392 20.7928 138.505 20.284C137.266 19.9102 136.069 19.4122 134.93 18.7978C133.235 17.8249 131.615 16.7241 130.087 15.505L121.413 9.13714C114.571 4.11464 111.15 1.60339 107.447 0.629643C104.139 -0.209881 100.673 -0.209881 97.364 0.629643C93.6228 1.60339 90.189 4.11464 83.3984 9.13714ZM151.689 78.4528C152.431 77.5483 152.983 76.5043 153.314 75.3825C153.645 74.2608 153.748 73.0841 153.617 71.9219C153.486 70.7597 153.123 69.6356 152.549 68.6161C151.976 67.5966 151.204 66.7024 150.28 65.9862C148.399 64.5147 146.017 63.8358 143.643 64.0943C141.269 64.3527 139.09 65.5281 137.57 67.3699L95.1603 119.389L72.4821 101.964C70.6296 100.456 68.2615 99.7314 65.8825 99.9444C63.5035 100.157 61.3017 101.291 59.7465 103.104C58.9867 103.993 58.4128 105.025 58.0588 106.14C57.7048 107.255 57.5777 108.429 57.6852 109.594C57.7927 110.758 58.1326 111.889 58.6847 112.92C59.2368 113.951 59.9899 114.861 60.8997 115.596L90.6246 138.787C92.5017 140.314 94.9066 141.036 97.3143 140.796C99.722 140.556 101.937 139.373 103.476 137.506L151.651 78.3118L151.689 78.4528Z" fill="url(#paint0_linear_41_3)"/>
<defs>
<linearGradient id="paint0_linear_41_3" x1="102.406" y1="0" x2="102.406" y2="204.838" gradientUnits="userSpaceOnUse">
<stop stop-color="#7AB4E4"/>
<stop offset="1" stop-color="#666666"/>
</linearGradient>
</defs>
</svg>
